<mxfile host="app.diagrams.net" agent="Mozilla/5.0 (Macintosh; Intel Mac OS X 10_15_7) AppleWebKit/605.1.15 (KHTML, like Gecko) Version/26.1 Safari/605.1.15" version="28.2.5">
  <diagram name="第 1 页" id="51aSyTN8NW-m_ME2kOmg">
    <mxGraphModel dx="1234" dy="826" grid="1" gridSize="10" guides="1" tooltips="1" connect="1" arrows="1" fold="1" page="1" pageScale="1" pageWidth="827" pageHeight="1169" math="0" shadow="0">
      <root>
        <mxCell id="0" />
        <mxCell id="1" parent="0" />
        <mxCell id="ARbY_WrPn276EFxLmVgK-1" value="" style="group" parent="1" vertex="1" connectable="0">
          <mxGeometry x="420" y="240" width="370" height="350" as="geometry" />
        </mxCell>
        <mxCell id="0RFeXB1oggQdj91naMoG-11" value="" style="rounded=1;whiteSpace=wrap;html=1;fillColor=none;arcSize=8;sketch=1;curveFitting=1;jiggle=2;" parent="ARbY_WrPn276EFxLmVgK-1" vertex="1">
          <mxGeometry width="370" height="350" as="geometry" />
        </mxCell>
        <mxCell id="0RFeXB1oggQdj91naMoG-1" value="TransportCore" style="rounded=1;whiteSpace=wrap;html=1;fillColor=#f8cecc;strokeColor=#b85450;fontSize=14;fontFamily=Comic Sans MS;sketch=1;curveFitting=1;jiggle=2;" parent="ARbY_WrPn276EFxLmVgK-1" vertex="1">
          <mxGeometry x="20" y="140" width="200" height="140" as="geometry" />
        </mxCell>
        <mxCell id="0RFeXB1oggQdj91naMoG-2" value="API" style="rounded=1;whiteSpace=wrap;html=1;fillColor=#dae8fc;strokeColor=#6c8ebf;fontSize=14;fontFamily=Comic Sans MS;sketch=1;curveFitting=1;jiggle=2;" parent="ARbY_WrPn276EFxLmVgK-1" vertex="1">
          <mxGeometry x="20" y="90" width="200" height="40" as="geometry" />
        </mxCell>
        <mxCell id="0RFeXB1oggQdj91naMoG-3" value="LocalServer" style="rounded=1;whiteSpace=wrap;html=1;fillColor=#f8cecc;strokeColor=#b85450;fontSize=14;fontFamily=Comic Sans MS;sketch=1;curveFitting=1;jiggle=2;" parent="ARbY_WrPn276EFxLmVgK-1" vertex="1">
          <mxGeometry x="230" y="40" width="120" height="90" as="geometry" />
        </mxCell>
        <mxCell id="0RFeXB1oggQdj91naMoG-4" value="Platform" style="rounded=1;whiteSpace=wrap;html=1;fillColor=#dae8fc;strokeColor=#6c8ebf;fontSize=14;fontFamily=Comic Sans MS;sketch=1;curveFitting=1;jiggle=2;" parent="ARbY_WrPn276EFxLmVgK-1" vertex="1">
          <mxGeometry x="20" y="40" width="200" height="40" as="geometry" />
        </mxCell>
        <mxCell id="0RFeXB1oggQdj91naMoG-6" value="Debugger" style="rounded=1;whiteSpace=wrap;html=1;fillColor=#fff2cc;strokeColor=#d6b656;fontSize=14;fontFamily=Comic Sans MS;sketch=1;curveFitting=1;jiggle=2;" parent="ARbY_WrPn276EFxLmVgK-1" vertex="1">
          <mxGeometry x="230" y="140" width="120" height="40" as="geometry" />
        </mxCell>
        <mxCell id="0RFeXB1oggQdj91naMoG-7" value="Telemetry" style="rounded=1;whiteSpace=wrap;html=1;fillColor=#fff2cc;strokeColor=#d6b656;fontSize=14;fontFamily=Comic Sans MS;sketch=1;curveFitting=1;jiggle=2;" parent="ARbY_WrPn276EFxLmVgK-1" vertex="1">
          <mxGeometry x="230" y="190" width="120" height="40" as="geometry" />
        </mxCell>
        <mxCell id="0RFeXB1oggQdj91naMoG-8" value="NetProber" style="rounded=1;whiteSpace=wrap;html=1;fillColor=#fff2cc;strokeColor=#d6b656;fontSize=14;fontFamily=Comic Sans MS;sketch=1;curveFitting=1;jiggle=2;" parent="ARbY_WrPn276EFxLmVgK-1" vertex="1">
          <mxGeometry x="230" y="240" width="120" height="40" as="geometry" />
        </mxCell>
        <mxCell id="0RFeXB1oggQdj91naMoG-9" value="KFC" style="rounded=1;whiteSpace=wrap;html=1;fillColor=#d5e8d4;strokeColor=#82b366;fontSize=14;fontFamily=Comic Sans MS;sketch=1;curveFitting=1;jiggle=2;" parent="ARbY_WrPn276EFxLmVgK-1" vertex="1">
          <mxGeometry x="20" y="290" width="330" height="40" as="geometry" />
        </mxCell>
        <mxCell id="0RFeXB1oggQdj91naMoG-12" value="TransportKit" style="text;html=1;align=center;verticalAlign=middle;whiteSpace=wrap;rounded=0;fontSize=14;fontFamily=Comic Sans MS;" parent="ARbY_WrPn276EFxLmVgK-1" vertex="1">
          <mxGeometry width="370" height="40" as="geometry" />
        </mxCell>
        <mxCell id="ARbY_WrPn276EFxLmVgK-32" value="" style="shape=flexArrow;endArrow=classic;html=1;rounded=1;fillColor=#f8cecc;strokeColor=#b85450;entryX=1;entryY=0.5;entryDx=0;entryDy=0;exitX=0;exitY=0.25;exitDx=0;exitDy=0;sketch=1;curveFitting=1;jiggle=2;" parent="1" source="0RFeXB1oggQdj91naMoG-1" target="ARbY_WrPn276EFxLmVgK-2" edge="1">
          <mxGeometry width="50" height="50" relative="1" as="geometry">
            <mxPoint x="300" y="680" as="sourcePoint" />
            <mxPoint x="350" y="630" as="targetPoint" />
          </mxGeometry>
        </mxCell>
        <mxCell id="ARbY_WrPn276EFxLmVgK-2" value="" style="rounded=1;whiteSpace=wrap;html=1;fillColor=none;strokeColor=#b85450;fontSize=14;fontFamily=Comic Sans MS;sketch=1;curveFitting=1;jiggle=2;container=0;" parent="1" vertex="1">
          <mxGeometry x="20" y="290" width="350" height="230" as="geometry" />
        </mxCell>
        <mxCell id="ARbY_WrPn276EFxLmVgK-4" value="Scheduler" style="rounded=1;whiteSpace=wrap;html=1;fillColor=#e1d5e7;strokeColor=#9673a6;fontSize=14;fontFamily=Comic Sans MS;sketch=1;curveFitting=1;jiggle=2;container=0;" parent="1" vertex="1">
          <mxGeometry x="40" y="310" width="310" height="40" as="geometry" />
        </mxCell>
        <mxCell id="ARbY_WrPn276EFxLmVgK-6" value="Cache" style="rounded=1;whiteSpace=wrap;html=1;fillColor=#ffe6cc;strokeColor=#d79b00;fontSize=14;fontFamily=Comic Sans MS;sketch=1;curveFitting=1;jiggle=2;container=0;" parent="1" vertex="1">
          <mxGeometry x="40" y="460" width="150" height="40" as="geometry" />
        </mxCell>
        <mxCell id="ARbY_WrPn276EFxLmVgK-8" value="Parser" style="rounded=1;whiteSpace=wrap;html=1;fillColor=#fff2cc;strokeColor=#d6b656;fontSize=14;fontFamily=Comic Sans MS;sketch=1;curveFitting=1;jiggle=2;container=0;" parent="1" vertex="1">
          <mxGeometry x="280" y="360" width="70" height="40" as="geometry" />
        </mxCell>
        <mxCell id="ARbY_WrPn276EFxLmVgK-12" value="P2P" style="rounded=1;whiteSpace=wrap;html=1;fillColor=#d5e8d4;strokeColor=#82b366;fontSize=14;fontFamily=Comic Sans MS;sketch=1;curveFitting=1;jiggle=2;container=0;" parent="1" vertex="1">
          <mxGeometry x="160" y="360" width="110" height="90" as="geometry" />
        </mxCell>
        <mxCell id="ARbY_WrPn276EFxLmVgK-5" value="CDN" style="rounded=1;whiteSpace=wrap;html=1;fillColor=#dae8fc;strokeColor=#6c8ebf;fontSize=14;fontFamily=Comic Sans MS;sketch=1;curveFitting=1;jiggle=2;container=0;" parent="1" vertex="1">
          <mxGeometry x="40" y="360" width="110" height="90" as="geometry" />
        </mxCell>
        <mxCell id="htI6FF0RRZnNIidORgzR-2" value="DNS" style="rounded=1;whiteSpace=wrap;html=1;fillColor=#fff2cc;strokeColor=#d6b656;fontSize=14;fontFamily=Comic Sans MS;sketch=1;curveFitting=1;jiggle=2;container=0;" parent="1" vertex="1">
          <mxGeometry x="280" y="410" width="70" height="40" as="geometry" />
        </mxCell>
        <mxCell id="htI6FF0RRZnNIidORgzR-3" value="Storage" style="rounded=1;whiteSpace=wrap;html=1;fillColor=#ffe6cc;strokeColor=#d79b00;fontSize=14;fontFamily=Comic Sans MS;sketch=1;curveFitting=1;jiggle=2;container=0;" parent="1" vertex="1">
          <mxGeometry x="200" y="460" width="150" height="40" as="geometry" />
        </mxCell>
      </root>
    </mxGraphModel>
  </diagram>
</mxfile>
